HIERARCHY
ROOT hip
{
  OFFSET 0 0 0
  CHANNELS 6 Xposition Yposition Zposition Zrotation Yrotation Xrotation
  JOINT abdomen
  {
    OFFSET 0 20.6881 -0.73152
    CHANNELS 3 Zrotation Xrotation Yrotation
    JOINT chest
    {
      OFFSET 0 11.7043 -0.48768
      CHANNELS 3 Zrotation Xrotation Yrotation
      JOINT neck
      {
        OFFSET 0 22.1894 -2.19456
        CHANNELS 3 Zrotation Xrotation Yrotation
        JOINT head
        {
          OFFSET -0.24384 7.07133 1.2192
          CHANNELS 3 Zrotation Xrotation Yrotation
          JOINT leftEye
          {
            OFFSET 4.14528 8.04674 8.04672
            CHANNELS 3 Zrotation Xrotation Yrotation
            End Site
            {
              OFFSET 1 0 0
            }
          }
          JOINT rightEye
          {
            OFFSET -3.6576 8.04674 8.04672
            CHANNELS 3 Zrotation Xrotation Yrotation
            End Site
            {
              OFFSET 1 0 0
            }
          }
        }
      }
      JOINT rCollar
      {
        OFFSET -2.68224 19.2634 -4.8768
        CHANNELS 3 Zrotation Xrotation Yrotation
        JOINT rShldr
        {
          OFFSET -8.77824 -1.95073 1.46304
          CHANNELS 3 Zrotation Xrotation Yrotation
          JOINT rForeArm
          {
            OFFSET -28.1742 -1.7115 0.48768
            CHANNELS 3 Zrotation Xrotation Yrotation
            JOINT rHand
            {
              OFFSET -22.5879 0.773209 7.07136
              CHANNELS 3 Zrotation Xrotation Yrotation
              JOINT rThumb1
              {
                OFFSET -1.2192 -0.487915 3.41376
                CHANNELS 3 Zrotation Xrotation Yrotation
                JOINT rThumb2
                {
                  OFFSET -3.37035 -0.52449 3.41376
                  CHANNELS 3 Zrotation Xrotation Yrotation
                  End Site
                  {
                    OFFSET -1.78271 -1.18214 1.43049
                  }
                }
              }
              JOINT rIndex1
              {
                OFFSET -7.75947 0.938293 5.60832
                CHANNELS 3 Zrotation Xrotation Yrotation
                JOINT rIndex2
                {
                  OFFSET -2.54057 -0.884171 1.56538
                  CHANNELS 3 Zrotation Xrotation Yrotation
                  End Site
                  {
                    OFFSET -1.62519 -0.234802 1.16502
                  }
                }
              }
              JOINT rMid1
              {
                OFFSET -8.24714 1.18213 3.41376
                CHANNELS 3 Zrotation Xrotation Yrotation
                JOINT rMid2
                {
                  OFFSET -3.10165 -0.590103 1.0647
                  CHANNELS 3 Zrotation Xrotation Yrotation
                  End Site
                  {
                    OFFSET -2.48547 -0.328903 0.83742
                  }
                }
              }
              JOINT rRing1
              {
                OFFSET -8.82822 0.546677 1.51678
                CHANNELS 3 Zrotation Xrotation Yrotation
                JOINT rRing2
                {
                  OFFSET -2.60934 -0.819778 -0.0198488
                  CHANNELS 3 Zrotation Xrotation Yrotation
                  End Site
                  {
                    OFFSET -2.33842 -0.294052 0.168128
                  }
                }
              }
              JOINT rPinky1
              {
                OFFSET -8.27202 -0.0477905 -0.4584
                CHANNELS 3 Zrotation Xrotation Yrotation
                JOINT rPinky2
                {
                  OFFSET -1.82734 -0.647385 -0.700984
                  CHANNELS 3 Zrotation Xrotation Yrotation
                  End Site
                  {
                    OFFSET -1.69225 -0.51767 -0.607171
                  }
                }
              }
            }
          }
        }
      }
      JOINT lCollar
      {
        OFFSET 2.68224 19.2634 -4.8768
        CHANNELS 3 Zrotation Xrotation Yrotation
        JOINT lShldr
        {
          OFFSET 8.77824 -1.95073 1.46304
          CHANNELS 3 Zrotation Xrotation Yrotation
          JOINT lForeArm
          {
            OFFSET 28.1742 -1.7115 0.48768
            CHANNELS 3 Zrotation Xrotation Yrotation
            JOINT lHand
            {
              OFFSET 22.5879 0.773209 7.07136
              CHANNELS 3 Zrotation Xrotation Yrotation
              JOINT lThumb1
              {
                OFFSET 1.2192 -0.487915 3.41376
                CHANNELS 3 Zrotation Xrotation Yrotation
                JOINT lThumb2
                {
                  OFFSET 3.37035 -0.52449 3.41376
                  CHANNELS 3 Zrotation Xrotation Yrotation
                  End Site
                  {
                    OFFSET 1.78271 -1.18214 1.43049
                  }
                }
              }
              JOINT lIndex1
              {
                OFFSET 7.75947 0.938293 5.60832
                CHANNELS 3 Zrotation Xrotation Yrotation
                JOINT lIndex2
                {
                  OFFSET 2.54057 -0.884171 1.56538
                  CHANNELS 3 Zrotation Xrotation Yrotation
                  End Site
                  {
                    OFFSET 1.62519 -0.234802 1.16502
                  }
                }
              }
              JOINT lMid1
              {
                OFFSET 8.24714 1.18213 3.41376
                CHANNELS 3 Zrotation Xrotation Yrotation
                JOINT lMid2
                {
                  OFFSET 3.10165 -0.590103 1.0647
                  CHANNELS 3 Zrotation Xrotation Yrotation
                  End Site
                  {
                    OFFSET 2.48547 -0.328903 0.83742
                  }
                }
              }
              JOINT lRing1
              {
                OFFSET 8.82822 0.546677 1.51678
                CHANNELS 3 Zrotation Xrotation Yrotation
                JOINT lRing2
                {
                  OFFSET 2.60934 -0.819778 -0.0198488
                  CHANNELS 3 Zrotation Xrotation Yrotation
                  End Site
                  {
                    OFFSET 2.33842 -0.294052 0.168128
                  }
                }
              }
              JOINT lPinky1
              {
                OFFSET 8.27202 -0.0477905 -0.4584
                CHANNELS 3 Zrotation Xrotation Yrotation
                JOINT lPinky2
                {
                  OFFSET 1.82734 -0.647385 -0.700984
                  CHANNELS 3 Zrotation Xrotation Yrotation
                  End Site
                  {
                    OFFSET 1.69225 -0.51767 -0.607171
                  }
                }
              }
            }
          }
        }
      }
    }
  }
  JOINT rButtock
  {
    OFFSET -8.77824 4.35084 1.2192
    CHANNELS 3 Zrotation Xrotation Yrotation
    JOINT rThigh
    {
      OFFSET 0 -1.70687 -2.19456
      CHANNELS 3 Zrotation Xrotation Yrotation
      JOINT rShin
      {
        OFFSET 0 -36.8199 0.73152
        CHANNELS 3 Zrotation Xrotation Yrotation
        JOINT rFoot
        {
          OFFSET 0.73152 -45.1104 -5.12064
          CHANNELS 3 Zrotation Xrotation Yrotation
          End Site
          {
            OFFSET -1.1221 -3.69964 12.103
          }
        }
      }
    }
  }
  JOINT lButtock
  {
    OFFSET 8.77824 4.35084 1.2192
    CHANNELS 3 Zrotation Xrotation Yrotation
    JOINT lThigh
    {
      OFFSET 0 -1.70687 -2.19456
      CHANNELS 3 Zrotation Xrotation Yrotation
      JOINT lShin
      {
        OFFSET 0 -36.8199 0.73152
        CHANNELS 3 Zrotation Xrotation Yrotation
        JOINT lFoot
        {
          OFFSET -0.73152 -45.1104 -5.12064
          CHANNELS 3 Zrotation Xrotation Yrotation
          End Site
          {
            OFFSET 1.1221 -3.69964 12.103
          }
        }
      }
    }
  }
}
MOTION
Frames:	8
Frame Time:	0.03333
0.0 0.0 0.0 0.0 0.0 0.0 0.0 0.0 0.0 0.0 0.0 0.0 0.0 0.0 0.0 0.0 0.0 0.0 0.0 0.0 0.0 0.0 0.0 0.0 0.0 0.0 0.0 0.0 0.0 0.0 0.0 0.0 0.0 0.0 0.0 0.0 0.0 0.0 0.0 0.0 0.0 0.0 0.0 0.0 0.0 0.0 0.0 0.0 0.0 0.0 0.0 0.0 0.0 0.0 0.0 0.0 0.0 0.0 0.0 0.0 0.0 0.0 0.0 0.0 0.0 0.0 0.0 0.0 0.0 0.0 0.0 0.0 0.0 0.0 0.0 0.0 0.0 0.0 0.0 0.0 0.0 0.0 0.0 0.0 0.0 0.0 0.0 0.0 0.0 0.0 0.0 0.0 0.0 0.0 0.0 0.0 0.0 0.0 0.0 0.0 0.0 0.0 0.0 0.0 0.0 0.0 0.0 0.0 0.0 0.0 0.0 0.0 0.0 0.0 0.0 0.0 0.0 0.0 0.0 0.0 0.0 0.0 0.0 0.0 0.0 0.0 0.0 0.0 0.0 0.0 0.0 0.0
-0.023 14.2399 -0.0114 -0.354669 -4.255757 -0.199895 -0.167683 2.766379 0.001114 -4.047794 2.654269 24.084102 178.183514 17.663772 -157.865901 -141.962437 -49.963259 82.588193 -43.066733 -18.154322 44.085659 -44.735598 -18.093905 42.305387 -155.848948 -71.171346 -83.994394 5.680507 27.888801 -163.601594 -178.363594 40.818751 -22.390844 -2.19812 18.425185 -144.971118 -8.766356 -26.264514 -58.99951 -0.20388 -35.864652 -5.638702 -38.494367 81.58943 9.306745 -55.924578 53.527975 45.125029 -26.266098 -44.9227 -51.108227 -36.266574 54.335624 30.286208 -9.824018 53.545948 3.21024 -68.777638 -82.430515 -90.940874 -148.117969 -25.73901 -133.627759 -155.231313 38.318767 -147.722157 -67.766889 25.814467 -6.165832 161.60469 -1.546091 -170.974062 175.399743 -1.036732 25.336893 4.908538 -6.423111 155.778481 172.582228 -1.158416 -124.982313 179.540557 -47.287436 -91.805749 47.592257 62.475099 -8.25179 162.41391 -19.211962 -113.686182 15.815069 -24.578413 22.154895 -4.412133 0.401386 0.169747 27.206542 22.505885 -12.852801 150.426066 -1.475598 -177.015744 167.042966 -0.23103 159.838515 1.233924 -0.826156 1.599975 -65.691667 0.822901 -78.732392 30.330086 67.034522 -28.081947 -11.239228 -0.405442 -103.651175 -74.753523 20.258675 107.484386 57.643228 51.433917 116.352672 5.473546 74.17371 35.610833 -8.15124 -5.035618 -99.174987 -121.01147 1.212028 24.793619
0.0395 24.0485 0.22599999999999998 4.542687 38.659111 4.019544 -13.777036 24.516219 -77.703334 36.777385 -5.040774 78.563322 -173.996111 55.684846 -47.94241 -91.202756 49.256828 -128.052598 -32.918658 0.833769 -2.821592 -62.101547 -4.325305 7.178099 -48.662962 73.739157 61.807216 12.360452 17.525219 44.680018 153.57771 -58.960833 -136.761567 15.128956 27.841721 -12.034521 -162.975621 -23.899435 88.099925 12.672919 -73.877468 18.171504 17.87272 39.264849 14.28671 20.069897 49.669058 36.594757 71.809946 64.894157 0.608709 -42.413872 -36.256158 -38.210479 -100.820939 5.640429 -176.688072 -98.272555 -80.704049 -90.165282 66.02733 9.533583 2.96714 16.339875 -0.020709 11.185707 -21.057701 26.666165 3.73524 122.643911 6.533769 -154.831665 -4.180353 -5.985145 145.287131 -168.862259 26.141551 -118.291937 -12.632371 2.151646 8.195032 -40.903984 32.582614 34.487649 8.372565 -60.726433 99.415688 -170.626352 26.265057 -148.08225 33.361345 -35.155386 118.687512 82.927727 74.797041 -73.945765 -29.609136 -3.566173 31.086132 -24.020554 -2.803275 26.105681 21.332382 -13.385151 73.196171 159.180798 44.629397 145.942869 25.845678 30.895719 47.749962 -69.119404 -51.250606 180.0 -75.243516 -27.950602 -174.108523 -63.040233 -13.331146 -134.821433 37.525997 -1.509402 -0.0 -80.522993 -6.940606 45.397043 79.982323 23.959903 82.148084 -45.66732 -5.86867 -85.658259
0.10120000000000001 26.6002 0.5237999999999999 1.762317 34.515446 2.220032 -6.977302 15.036549 -97.537596 35.628426 -1.337876 106.694161 -177.478431 26.050309 -93.940972 -76.735917 -33.473619 -117.790657 -30.236487 14.121468 -49.25985 -43.0746 15.227148 -37.421797 -54.829047 -60.28955 -120.216092 93.740009 76.529331 -94.837277 165.552072 1.607121 72.199213 144.857244 -5.425997 135.380895 -166.403098 -39.758306 85.05509 -22.129618 -9.246705 35.68482 -133.497161 -55.767416 129.466684 164.027459 3.489004 144.72536 49.039662 49.420489 8.285092 -176.080274 57.947573 149.172995 -118.897032 7.505313 173.712555 163.741971 -52.778601 176.127453 31.790086 -56.45066 -25.177085 -7.467537 -23.494948 -4.599298 60.966549 -80.558178 104.006723 71.246641 -49.431137 70.556845 166.788492 -13.940032 66.03418 -23.939376 -12.290987 34.453096 -12.757526 44.095224 10.894347 -39.555487 -23.67076 13.392915 92.563223 -44.291408 -177.910597 17.30486 -20.339585 7.583846 93.610009 -24.122167 142.929896 168.263371 9.500455 -147.299327 66.279065 -40.244747 104.802599 -80.259162 -70.071259 -74.948125 -6.18672 1.680597 61.924723 -14.861117 -84.707041 -5.687625 -127.16081 56.556757 -57.6879 -177.474006 14.090577 -0.0 37.30205 64.417129 64.962097 119.430511 42.653581 148.769986 33.896167 -2.236826 -0.0 -72.573782 -4.0465 83.80554 77.993555 -9.262684 125.790016 157.704276 -20.250949 114.587317
0.2695 26.1532 0.8213 0.692941 32.425486 3.308865 -5.603479 9.795496 -51.728127 20.522095 -20.759842 66.525935 165.969557 51.670027 -89.642033 -20.815087 -37.836053 -84.713865 -17.473806 7.43573 -45.839816 -29.289848 15.744306 -55.767595 -40.784131 -61.279486 -115.219281 -170.607273 0.870996 -173.172924 -123.944034 -81.347334 -64.141472 15.670833 28.727899 -12.332042 166.200415 -63.013511 59.824131 -131.27414 -45.781171 71.480207 -0.918008 49.115778 32.804332 -18.766371 42.140629 56.771114 66.919864 12.125383 -2.176183 -27.315417 -1.824719 -8.861375 39.984989 5.986566 -5.865133 -58.218764 78.648667 96.40339 77.045641 84.652328 21.506038 -167.64041 42.188739 -146.290314 -3.884091 32.775377 -14.775787 112.717415 -25.259053 -161.110144 -173.816628 15.544719 71.809258 -14.296788 16.944175 34.520605 17.528009 56.616701 -24.551887 127.334198 -77.716821 -112.705158 -20.997651 -55.750262 46.864363 -127.048308 67.764703 147.360392 34.774193 -38.608193 113.254302 -28.720359 7.54399 -8.381147 112.057264 -10.34929 156.50444 -58.701026 4.434293 -4.073049 150.735094 36.500493 96.840265 -63.160223 73.454004 38.765557 -131.713261 52.55243 -54.713807 -170.437382 5.32184 118.835246 69.560144 -29.900843 -178.459088 -82.744661 -59.018738 -33.621972 -28.369211 24.490717 -41.069192 8.701839 -30.778414 4.627542 -24.841357 72.898718 98.954421 -102.255998 -46.04029 -50.701207
0.5539 33.5599 1.2455 0.7427 36.136726 3.890962 -7.312223 10.317032 -0.0 -3.289051 -27.523035 2.216876 176.153782 58.448589 -7.563456 -44.271394 21.29458 -168.085122 -23.79233 5.680579 -26.504364 -35.073124 16.764015 -49.997867 58.788778 44.802224 -12.705074 -151.868564 11.644028 169.614005 -57.5134 -35.89807 -129.673758 122.808224 -56.228059 109.617717 -19.059379 58.12551 35.559936 -142.574795 44.430772 97.667463 16.336919 52.808091 12.138889 -4.765322 23.20677 38.531626 23.704496 68.743718 46.172801 -170.681471 26.891113 168.142351 61.427563 5.404092 -15.093256 -74.550136 76.472701 90.703571 -75.648707 6.78093 -133.473605 -131.746774 -7.635129 -121.636269 143.570145 -14.245703 -162.100263 53.879564 15.516078 -11.079991 -172.602771 9.811988 74.119246 -12.274268 18.224781 31.774138 -161.28383 -68.44677 -70.924995 87.746096 -61.860404 86.571515 -35.291137 -22.866119 21.334442 149.162865 25.174245 179.192059 49.989428 -44.401243 132.153233 178.642122 -34.986318 -129.541531 -41.718895 18.918674 19.366772 37.025738 27.151717 -6.955763 -19.566964 -3.55828 30.981742 -13.883732 -3.203048 23.173071 -4.444562 7.567316 30.550466 25.960895 -67.656186 -152.237172 -32.884487 -75.004943 50.376158 -140.900098 -30.0072 -67.408414 101.145777 30.878075 45.699538 -167.678866 43.106931 -8.309822 -59.748198 63.330178 -45.389772 -67.599419 34.411761 -125.604345
1.3041 49.437999999999995 1.54 -0.099546 36.362478 4.364143 -6.349545 12.379727 1.107215 -17.240076 -47.49789 0.587465 156.036068 41.867618 -31.680767 -43.477584 -1.138909 -128.760013 -38.332511 10.405577 -29.360263 -53.212117 16.651215 -32.572339 89.24315 50.114619 -41.169995 34.460528 -74.293541 10.465274 29.634537 20.391296 47.658373 -16.445086 42.552746 7.925371 -178.407788 -57.818443 70.519407 158.40355 -45.81024 53.831768 17.242924 42.05187 6.85613 -143.478561 -14.277824 84.251582 36.87082 51.599226 34.331146 7.749848 2.348817 -24.694509 -80.6348 5.402802 -172.456298 -109.309993 -68.993459 -141.07866 -44.575353 -51.161245 -86.261861 -134.142639 -1.731131 -119.306693 -7.019219 0.031387 -4.301943 -59.044557 2.89848 24.718825 179.451008 -26.573765 -42.787258 -154.519321 5.205593 -121.436105 -92.429076 -61.460623 -11.046214 148.787639 -40.133825 -169.685495 11.524346 42.387579 -27.744348 -24.038079 47.812613 -32.830328 -20.326176 -58.513665 69.768024 174.614481 -6.597685 -132.092031 -32.964988 81.513494 -18.610585 -123.626591 28.600227 146.42326 -21.490657 -27.413743 26.877098 -94.047307 61.510855 56.15228 29.826515 32.950975 53.557593 -69.372186 -46.571091 -0.0 64.262948 44.957073 -154.120212 -37.528022 -74.200657 8.724032 -31.183023 28.529227 -47.770622 17.990891 -25.876969 96.422184 76.433718 19.554185 15.726023 -48.51042 -46.691148 -37.829856
2.3431 59.4954 1.6462 0.228211 36.330002 5.645173 -6.838979 11.301391 -66.987495 71.265147 -39.313893 115.387406 152.182465 30.969017 -49.066139 -21.665523 -14.864988 -109.30299 -41.250531 9.811705 -25.693209 -54.547336 11.443691 -21.996638 112.973222 30.888334 -64.975923 19.453249 27.473999 8.218389 -158.365036 66.669363 71.825166 172.87814 -22.594764 143.934469 -156.28535 -48.263058 87.364151 17.05212 -3.967673 24.07116 -108.788901 -14.069597 133.724538 -177.65322 27.562645 119.712487 61.803488 23.378757 12.190417 -135.964862 -55.388604 -160.774916 64.056638 0.99817 -5.901854 -154.228956 60.901716 154.01806 -124.052306 62.38722 -156.615812 -7.909553 -6.634183 23.762502 20.58902 30.359796 -23.624729 -62.56251 -1.16061 15.089802 4.022103 26.128174 -100.315484 -21.002436 8.51842 21.917464 163.334997 -55.855152 -98.2664 61.793666 -51.181729 45.30315 106.840718 3.047944 -131.024618 -77.45835 -47.293789 -62.714716 -73.285336 58.051621 23.266373 132.505773 -71.207119 149.66317 -13.44118 82.116304 -38.2361 48.752767 12.814522 42.241856 121.042165 52.063876 131.664263 8.710758 -2.531642 -8.171553 -58.803127 2.606521 -23.424542 102.557246 -19.890811 94.333798 73.046106 36.259365 155.292995 59.23838 -13.222491 93.182857 123.30208 63.006731 59.656863 131.440655 45.4579 -122.180566 -37.121903 -71.815222 -119.134121 -95.811964 -11.567631 -48.033235
